<svg width="104" height="20" viewBox="0 0 104 20" fill="none" xmlns="http://www.w3.org/2000/svg">
<path fill-rule="evenodd" clip-rule="evenodd" d="M7.22891 20C6.14457 19.8795 -5.72205e-06 11.2213 -5.72205e-06 7.22892C-5.72205e-06 3.2365 3.23649 0 7.22891 0C11.2213 0 14.4578 3.2365 14.4578 7.22892C14.4578 11.2213 8.31325 19.8795 7.22891 20ZM7.22885 11.0843C5.09956 11.0843 3.37343 9.35819 3.37343 7.2289C3.37343 5.09961 5.09956 3.37348 7.22885 3.37348C9.35815 3.37348 11.0843 5.09961 11.0843 7.2289C11.0843 9.35819 9.35815 11.0843 7.22885 11.0843Z" fill="url(#paint0_angular_65_852)"/>
<path d="M19.026 5.89205V3.86364H28.5828V5.89205H25.0203V15.5H22.5885V5.89205H19.026ZM29.205 15.5V6.77273H31.5516V8.29545H31.6425C31.8016 7.75379 32.0686 7.3447 32.4436 7.06818C32.8186 6.78788 33.2504 6.64773 33.7391 6.64773C33.8603 6.64773 33.991 6.6553 34.1311 6.67045C34.2713 6.68561 34.3944 6.70644 34.5004 6.73295V8.88068C34.3868 8.84659 34.2296 8.81629 34.0288 8.78977C33.8281 8.76326 33.6444 8.75 33.4777 8.75C33.1217 8.75 32.8035 8.82765 32.5232 8.98295C32.2467 9.13447 32.027 9.34659 31.8641 9.61932C31.705 9.89205 31.6254 10.2064 31.6254 10.5625V15.5H29.205ZM37.9905 15.6648C37.4337 15.6648 36.9375 15.5682 36.5019 15.375C36.0663 15.178 35.7216 14.8883 35.4678 14.5057C35.2178 14.1193 35.0928 13.6383 35.0928 13.0625C35.0928 12.5777 35.1818 12.1705 35.3598 11.8409C35.5378 11.5114 35.7803 11.2462 36.0871 11.0455C36.3939 10.8447 36.7424 10.6932 37.1325 10.5909C37.5265 10.4886 37.9394 10.4167 38.3712 10.375C38.8788 10.322 39.2878 10.2727 39.5984 10.2273C39.9091 10.178 40.1344 10.1061 40.2746 10.0114C40.4147 9.91667 40.4848 9.77652 40.4848 9.59091V9.55682C40.4848 9.19697 40.3712 8.91856 40.1439 8.72159C39.9204 8.52462 39.6022 8.42614 39.1894 8.42614C38.7538 8.42614 38.4072 8.52273 38.1496 8.71591C37.892 8.9053 37.7216 9.14394 37.6382 9.43182L35.3996 9.25C35.5132 8.7197 35.7367 8.26136 36.07 7.875C36.4034 7.48485 36.8333 7.18561 37.3598 6.97727C37.8901 6.76515 38.5038 6.65909 39.2007 6.65909C39.6856 6.65909 40.1496 6.71591 40.5928 6.82955C41.0397 6.94318 41.4356 7.11932 41.7803 7.35795C42.1288 7.59659 42.4034 7.90341 42.6041 8.27841C42.8049 8.64962 42.9053 9.0947 42.9053 9.61364V15.5H40.6098V14.2898H40.5416C40.4015 14.5625 40.214 14.803 39.9791 15.0114C39.7443 15.2159 39.4621 15.3769 39.1325 15.4943C38.803 15.608 38.4223 15.6648 37.9905 15.6648ZM38.6837 13.9943C39.0397 13.9943 39.3541 13.9242 39.6269 13.7841C39.8996 13.6402 40.1136 13.447 40.2689 13.2045C40.4242 12.9621 40.5019 12.6875 40.5019 12.3807V11.4545C40.4261 11.5038 40.3219 11.5492 40.1894 11.5909C40.0606 11.6288 39.9147 11.6648 39.7519 11.6989C39.589 11.7292 39.4261 11.7576 39.2632 11.7841C39.1003 11.8068 38.9526 11.8277 38.82 11.8466C38.5359 11.8883 38.2878 11.9545 38.0757 12.0455C37.8636 12.1364 37.6988 12.2595 37.5814 12.4148C37.464 12.5663 37.4053 12.7557 37.4053 12.983C37.4053 13.3125 37.5246 13.5644 37.7632 13.7386C38.0056 13.9091 38.3125 13.9943 38.6837 13.9943ZM52.607 6.77273L49.5558 15.5H46.8286L43.7774 6.77273H46.3342L48.1467 13.017H48.2377L50.0445 6.77273H52.607ZM57.5416 15.6705C56.6439 15.6705 55.8712 15.4886 55.2234 15.125C54.5795 14.7576 54.0833 14.2386 53.7348 13.5682C53.3863 12.8939 53.2121 12.0966 53.2121 11.1761C53.2121 10.2784 53.3863 9.49053 53.7348 8.8125C54.0833 8.13447 54.5738 7.60606 55.2064 7.22727C55.8428 6.84848 56.589 6.65909 57.445 6.65909C58.0208 6.65909 58.5568 6.75189 59.053 6.9375C59.553 7.11932 59.9886 7.39394 60.3598 7.76136C60.7348 8.12879 61.0265 8.59091 61.2348 9.14773C61.4431 9.70076 61.5473 10.3485 61.5473 11.0909V11.7557H54.178V10.2557H59.2689C59.2689 9.9072 59.1931 9.59848 59.0416 9.32955C58.8901 9.06061 58.6799 8.85038 58.4109 8.69886C58.1458 8.54356 57.8371 8.46591 57.4848 8.46591C57.1174 8.46591 56.7916 8.55114 56.5075 8.72159C56.2272 8.88826 56.0075 9.11364 55.8484 9.39773C55.6894 9.67803 55.6079 9.99053 55.6041 10.3352V11.7614C55.6041 12.1932 55.6837 12.5663 55.8428 12.8807C56.0056 13.1951 56.2348 13.4375 56.5303 13.608C56.8257 13.7784 57.1761 13.8636 57.5814 13.8636C57.8503 13.8636 58.0966 13.8258 58.32 13.75C58.5435 13.6742 58.7348 13.5606 58.8939 13.4091C59.053 13.2576 59.1742 13.072 59.2575 12.8523L61.4962 13C61.3825 13.5379 61.1496 14.0076 60.7973 14.4091C60.4488 14.8068 59.9981 15.1174 59.445 15.3409C58.8958 15.5606 58.2613 15.6705 57.5416 15.6705ZM65.5473 3.86364V15.5H63.1269V3.86364H65.5473ZM67.5317 15.5V3.86364H75.2362V5.89205H69.9919V8.66477H74.7249V10.6932H69.9919V15.5H67.5317ZM79.2661 3.86364V15.5H76.8456V3.86364H79.2661ZM85.1482 15.6705C84.2656 15.6705 83.5023 15.483 82.8584 15.108C82.2182 14.7292 81.7239 14.2027 81.3754 13.5284C81.027 12.8504 80.8527 12.0644 80.8527 11.1705C80.8527 10.2689 81.027 9.48106 81.3754 8.80682C81.7239 8.12879 82.2182 7.60227 82.8584 7.22727C83.5023 6.84848 84.2656 6.65909 85.1482 6.65909C86.0307 6.65909 86.7921 6.84848 87.4323 7.22727C88.0762 7.60227 88.5724 8.12879 88.9209 8.80682C89.2694 9.48106 89.4436 10.2689 89.4436 11.1705C89.4436 12.0644 89.2694 12.8504 88.9209 13.5284C88.5724 14.2027 88.0762 14.7292 87.4323 15.108C86.7921 15.483 86.0307 15.6705 85.1482 15.6705ZM85.1595 13.7955C85.561 13.7955 85.8963 13.6818 86.1652 13.4545C86.4342 13.2235 86.6368 12.9091 86.7732 12.5114C86.9133 12.1136 86.9834 11.661 86.9834 11.1534C86.9834 10.6458 86.9133 10.1932 86.7732 9.79545C86.6368 9.39773 86.4342 9.08333 86.1652 8.85227C85.8963 8.62121 85.561 8.50568 85.1595 8.50568C84.7542 8.50568 84.4133 8.62121 84.1368 8.85227C83.8641 9.08333 83.6576 9.39773 83.5175 9.79545C83.3811 10.1932 83.3129 10.6458 83.3129 11.1534C83.3129 11.661 83.3811 12.1136 83.5175 12.5114C83.6576 12.9091 83.8641 13.2235 84.1368 13.4545C84.4133 13.6818 84.7542 13.7955 85.1595 13.7955ZM92.5203 15.5L90.1453 6.77273H92.5942L93.9465 12.6364H94.026L95.4351 6.77273H97.8385L99.2703 12.6023H99.3442L100.674 6.77273H103.117L100.748 15.5H98.1851L96.6851 10.0114H96.5771L95.0771 15.5H92.5203Z" fill="#282525"/>
<defs>
<radialGradient id="paint0_angular_65_852" cx="0" cy="0" r="1" gradientUnits="userSpaceOnUse" gradientTransform="translate(7.22891 10) rotate(90) scale(10)">
<stop offset="0.193248" stop-color="#00B4D8"/>
<stop offset="0.193348" stop-color="#FF6F61"/>
<stop offset="0.589182" stop-color="#FF6F61"/>
<stop offset="0.589232" stop-color="#0077B6"/>
<stop offset="0.589282" stop-color="#00B4D8"/>
<stop offset="0.592571" stop-color="#0077B6"/>
<stop offset="0.887841" stop-color="#0077B6"/>
<stop offset="0.892184" stop-color="#00B4D8"/>
</radialGradient>
</defs>
</svg>
