<svg width="30" height="29" viewBox="0 0 30 29" fill="none" xmlns="http://www.w3.org/2000/svg">
<g clip-path="url(#clip0_127_194)">
<path d="M18.825 6.38363L25.8962 13.2192C26.2474 13.559 26.4446 14.0197 26.4446 14.5C26.4446 14.9803 26.2474 15.441 25.8962 15.7808L18.8262 22.6176C18.4745 22.9576 17.9974 23.1486 17.5 23.1486C17.0026 23.1486 16.5255 22.9576 16.1738 22.6176C15.822 22.2776 15.6244 21.8164 15.6244 21.3356C15.6244 20.8547 15.822 20.3935 16.1738 20.0535L20.0437 16.3125H5.625C5.12772 16.3125 4.65081 16.1216 4.29917 15.7816C3.94754 15.4417 3.75 14.9807 3.75 14.5C3.75 14.0193 3.94754 13.5583 4.29917 13.2184C4.65081 12.8785 5.12772 12.6875 5.625 12.6875H20.0437L16.175 8.94651C15.8234 8.60649 15.626 8.14539 15.6261 7.66464C15.6262 7.1839 15.8239 6.72289 16.1756 6.38303C16.5274 6.04317 17.0044 5.8523 17.5017 5.85242C17.999 5.85253 18.4759 6.04361 18.8275 6.38363H18.825Z" fill="white"/>
</g>
<defs>
<clipPath id="clip0_127_194">
<rect width="30" height="29" fill="white"/>
</clipPath>
</defs>
</svg>
