<svg width="16" height="16" viewBox="0 0 16 16" fill="none" xmlns="http://www.w3.org/2000/svg">
<path d="M6.04249 3.61692C6.01297 3.58457 5.99246 3.54503 5.98301 3.50227C5.97357 3.4595 5.97553 3.415 5.9887 3.37323C6.00186 3.33146 6.02577 3.29388 6.05803 3.26425C6.09028 3.23462 6.12976 3.21399 6.17249 3.20442C6.77196 3.06735 7.38506 2.99879 7.99999 3.00004C10.18 3.00004 12.1606 3.82879 13.7287 5.39692C14.9056 6.57379 15.435 7.74817 15.4569 7.79754C15.4853 7.86149 15.5 7.93069 15.5 8.00067C15.5 8.07065 15.4853 8.13985 15.4569 8.20379C15.435 8.25317 14.9056 9.42692 13.7287 10.6038C13.5504 10.7813 13.3673 10.9494 13.1794 11.1082C13.1299 11.1501 13.0661 11.1713 13.0014 11.1671C12.9367 11.1629 12.8761 11.1337 12.8325 11.0857L6.04249 3.61692ZM13.37 13.1638C13.4151 13.2122 13.4501 13.2691 13.473 13.3312C13.496 13.3932 13.5064 13.4592 13.5036 13.5254C13.5008 13.5915 13.485 13.6564 13.4569 13.7163C13.4289 13.7762 13.3893 13.83 13.3403 13.8745C13.2913 13.919 13.234 13.9533 13.1717 13.9755C13.1094 13.9977 13.0432 14.0073 12.9772 14.0038C12.9111 14.0002 12.8464 13.9836 12.7868 13.9548C12.7272 13.9261 12.6739 13.8858 12.63 13.8363L11.25 12.3207C10.2266 12.7733 9.11907 13.0049 7.99999 13C5.81999 13 3.83937 12.1713 2.27124 10.6038C1.09437 9.42692 0.562494 8.25317 0.543119 8.20379C0.51469 8.13985 0.5 8.07065 0.5 8.00067C0.5 7.93069 0.51469 7.86149 0.543119 7.79754C0.562494 7.75004 1.09437 6.57379 2.27124 5.39692C2.74142 4.92457 3.26591 4.50959 3.83374 4.16067L2.62999 2.83629C2.58491 2.78786 2.54989 2.73097 2.52696 2.6689C2.50402 2.60684 2.49364 2.54084 2.4964 2.47473C2.49916 2.40863 2.51502 2.34372 2.54305 2.28379C2.57108 2.22385 2.61072 2.17008 2.65969 2.12558C2.70865 2.08108 2.76597 2.04674 2.8283 2.02455C2.89063 2.00237 2.95675 1.99277 3.02282 1.99633C3.08889 1.99988 3.1536 2.01651 3.21319 2.04526C3.27279 2.07401 3.32608 2.1143 3.36999 2.16379L13.37 13.1638ZM9.27687 10.1482L5.98374 6.52317C5.64441 6.9881 5.47591 7.55589 5.50668 8.13066C5.53746 8.70544 5.76562 9.25199 6.15266 9.67803C6.5397 10.1041 7.0619 10.3835 7.63109 10.4692C8.20028 10.5548 8.78159 10.4414 9.27687 10.1482Z" fill="black"/>
</svg>
