<svg width="18" height="18" viewBox="0 0 18 18" fill="none" xmlns="http://www.w3.org/2000/svg">
<path d="M9.00077 3.39674C9.85785 2.62998 10.976 2.22046 12.1255 2.25226C13.2751 2.28406 14.3689 2.75477 15.1823 3.56774C15.9948 4.38013 16.4658 5.47254 16.4987 6.62105C16.5316 7.76956 16.1239 8.88715 15.3593 9.74474L8.99927 16.1137L2.64077 9.74474C1.87521 8.88671 1.46717 7.76815 1.50042 6.61872C1.53367 5.46929 2.00568 4.3762 2.81956 3.56386C3.63344 2.75152 4.72742 2.28156 5.87691 2.25049C7.02641 2.21941 8.14418 2.62956 9.00077 3.39674ZM14.1203 4.62749C13.5783 4.08641 12.8499 3.77311 12.0843 3.75177C11.3188 3.73044 10.5741 4.00269 10.0028 4.51274L9.00152 5.41124L7.99952 4.51349C7.43077 4.0049 6.68961 3.73213 5.92687 3.75068C5.16412 3.76922 4.43709 4.07769 3.89373 4.61331C3.35037 5.14893 3.03151 5.87145 3.00202 6.63385C2.97254 7.39626 3.23465 8.14125 3.73502 8.71724L9.00002 13.9905L14.265 8.71799C14.7633 8.14454 15.0254 7.40342 14.9986 6.64422C14.9717 5.88502 14.6578 5.16428 14.1203 4.62749Z" fill="black"/>
</svg>
