<svg width="30" height="18" viewBox="0 0 30 18" fill="none" xmlns="http://www.w3.org/2000/svg">
<path d="M20.3692 0H16.3441C15.9692 0 15.6084 0.140574 15.3319 0.393607L10.7258 4.61083C10.7211 4.61551 10.7164 4.62489 10.7117 4.62957C9.9339 5.36056 9.94795 6.52732 10.6133 7.25362C11.2084 7.90495 12.4595 8.07832 13.2421 7.38014C13.2468 7.37545 13.2561 7.37545 13.2608 7.37076L17.0048 3.94076C17.3093 3.6643 17.7873 3.68304 18.0638 3.98762C18.3449 4.29219 18.3215 4.76546 18.0169 5.04661L16.7939 6.16651L23.6164 11.7051C23.7523 11.8176 23.8742 11.9394 23.9866 12.0659V2.99891L21.4282 0.440465C21.1517 0.159317 20.7675 0 20.3692 0ZM25.4908 3.00828V13.4998C25.4908 14.3292 26.1608 14.9992 26.9902 14.9992H29.9891V3.00828H25.4908ZM27.7399 13.4998C27.3276 13.4998 26.9902 13.1624 26.9902 12.7501C26.9902 12.3377 27.3276 12.0003 27.7399 12.0003C28.1523 12.0003 28.4897 12.3377 28.4897 12.7501C28.4897 13.1624 28.1523 13.4998 27.7399 13.4998ZM0 14.9946H2.99891C3.8283 14.9946 4.49837 14.3245 4.49837 13.4951V3.00828H0V14.9946ZM2.24918 12.0003C2.66153 12.0003 2.99891 12.3377 2.99891 12.7501C2.99891 13.1624 2.66153 13.4998 2.24918 13.4998C1.83683 13.4998 1.49946 13.1624 1.49946 12.7501C1.49946 12.333 1.83683 12.0003 2.24918 12.0003ZM22.6746 12.8719L15.6787 7.1927L14.2729 8.4813C12.8813 9.75115 10.7492 9.62932 9.50749 8.27512C8.24701 6.8975 8.34541 4.76546 9.71366 3.50966L13.5466 0H9.61995C9.22166 0 8.84211 0.159317 8.56096 0.440465L5.99782 2.99891V13.4904H6.85533L11.096 17.3281C12.3799 18.373 14.2683 18.1762 15.3132 16.8923L15.3226 16.8829L16.1613 17.6092C16.9064 18.2184 18.0075 18.1012 18.612 17.3562L20.0833 15.5475L20.3364 15.7537C20.9783 16.2738 21.9249 16.1801 22.445 15.5334L22.8901 14.9852C23.4149 14.3385 23.3165 13.3967 22.6746 12.8719Z" fill="white"/>
</svg>
