<svg width="18" height="20" viewBox="0 0 18 20" fill="none" xmlns="http://www.w3.org/2000/svg">
<g clip-path="url(#clip0_128_206)">
<path d="M2.46753 1.25C1.10653 1.25 0 2.37109 0 3.75V16.25C0 17.6289 1.10653 18.75 2.46753 18.75H14.8052C16.1662 18.75 17.2727 17.6289 17.2727 16.25V3.75C17.2727 2.37109 16.1662 1.25 14.8052 1.25H2.46753ZM13.9223 4.53125L9.92025 9.16406L14.6278 15.4688H10.942L8.05804 11.6445L4.75386 15.4688H2.92248L7.20211 10.5117L2.6873 4.53125H6.46571L9.07589 8.02734L12.0909 4.53125H13.9223ZM12.4649 14.3594L5.91437 5.58203H4.82326L11.447 14.3594H12.461H12.4649Z" fill="black"/>
</g>
<defs>
<clipPath id="clip0_128_206">
<rect width="17.2727" height="20" fill="white"/>
</clipPath>
</defs>
</svg>
